HIERARCHY
ROOT reference
{
  OFFSET 0 0 0
  CHANNELS 6 Xposition Yposition Zposition Zrotation Xrotation Yrotation
  JOINT Hips
  {
    OFFSET -9.63704 81.8045 109.831
    CHANNELS 6 Xposition Yposition Zposition Zrotation Xrotation Yrotation
    JOINT Spine
    {
      OFFSET 0 7.76127 0
      CHANNELS 6 Xposition Yposition Zposition Zrotation Xrotation Yrotation
      JOINT Spine1
      {
        OFFSET 0 24.7858 0
        CHANNELS 6 Xposition Yposition Zposition Zrotation Xrotation Yrotation
        JOINT Neck
        {
          OFFSET 0 24.684 2.244
          CHANNELS 6 Xposition Yposition Zposition Zrotation Xrotation Yrotation
          JOINT Head
          {
            OFFSET 0 13.2509 -1.89299
            CHANNELS 6 Xposition Yposition Zposition Zrotation Xrotation Yrotation
            End Site
            {
              OFFSET 0 23.6624 0
            }
          }
        }
        JOINT LeftShoulder
        {
          OFFSET 3.79413 23.4442 -0.177979
          CHANNELS 6 Xposition Yposition Zposition Zrotation Xrotation Yrotation
          JOINT LeftArm
          {
            OFFSET 9.21107 0 0
            CHANNELS 6 Xposition Yposition Zposition Zrotation Xrotation Yrotation
            JOINT LeftForeArm
            {
              OFFSET 34.3528 0 0
              CHANNELS 6 Xposition Yposition Zposition Zrotation Xrotation Yrotation
              JOINT LeftHand
              {
                OFFSET 25.4606 0 0
                CHANNELS 6 Xposition Yposition Zposition Zrotation Xrotation Yrotation
                End Site
                {
                  OFFSET 14.1974 0 0
                }
              }
            }
          }
        }
        JOINT RightShoulder
        {
          OFFSET -3.76739 23.4442 -0.177979
          CHANNELS 6 Xposition Yposition Zposition Zrotation Xrotation Yrotation
          JOINT RightArm
          {
            OFFSET -9.21107 0 0
            CHANNELS 6 Xposition Yposition Zposition Zrotation Xrotation Yrotation
            JOINT RightForeArm
            {
              OFFSET -34.3528 0 0
              CHANNELS 6 Xposition Yposition Zposition Zrotation Xrotation Yrotation
              JOINT RightHand
              {
                OFFSET -25.4606 0 0
                CHANNELS 6 Xposition Yposition Zposition Zrotation Xrotation Yrotation
                End Site
                {
                  OFFSET -14.1974 0 0
                }
              }
            }
          }
        }
      }
    }
    JOINT LeftUpLeg
    {
      OFFSET 9.46496 0 0
      CHANNELS 6 Xposition Yposition Zposition Zrotation Xrotation Yrotation
      JOINT LeftLeg
      {
        OFFSET 0 -36.0737 0
        CHANNELS 6 Xposition Yposition Zposition Zrotation Xrotation Yrotation
        JOINT LeftFoot
        {
          OFFSET 0 -40.8088 0
          CHANNELS 6 Xposition Yposition Zposition Zrotation Xrotation Yrotation
          JOINT LeftToeBase
          {
            OFFSET 0 -6.15222 14.1974
            CHANNELS 6 Xposition Yposition Zposition Zrotation Xrotation Yrotation
            End Site
            {
              OFFSET 0 0 3.78598
            }
          }
        }
      }
    }
    JOINT RightUpLeg
    {
      OFFSET -9.46496 0 0
      CHANNELS 6 Xposition Yposition Zposition Zrotation Xrotation Yrotation
      JOINT RightLeg
      {
        OFFSET 0 -36.0737 0
        CHANNELS 6 Xposition Yposition Zposition Zrotation Xrotation Yrotation
        JOINT RightFoot
        {
          OFFSET 0 -40.8088 0
          CHANNELS 6 Xposition Yposition Zposition Zrotation Xrotation Yrotation
          JOINT RightToeBase
          {
            OFFSET 0 -6.15222 14.1974
            CHANNELS 6 Xposition Yposition Zposition Zrotation Xrotation Yrotation
            End Site
            {
              OFFSET 0 0 3.78598
            }
          }
        }
      }
    }
  }
}
MOTION
Frames:	4
Frame Time:	0.004
0 0 0 0 0 -0 -12.8517 75.1461 -98.1077 -3.95948 -13.0686 -18.5594 0 7.76127 0 4.78108 15.942 -2.88376 0 24.7858 0 -8.54137 12.7519 -1.25741 0 24.684 2.244 1.16947 18.0913 9.8146 -3.55271e-015 13.2509 -1.89299 -8.9054 -7.76652 8.3868 3.79413 23.4442 -0.177979 -8.59601 20.1501 0.48506 9.21107 0 0 -46.969 35.4158 1.76714 34.3528 0 1.42109e-014 54.3566 -28.1239 -35.9551 25.4606 2.84217e-014 0 26.1573 -5.58793 18.9972 -3.76739 23.4442 -0.177979 1.31469 17.3606 -4.16683 -9.21107 1.42109e-014 0 35.5898 27.0646 10.171 -34.3528 -7.10543e-015 0 -22.3936 -40.7574 116.706 -25.4606 0 3.55271e-015 -19.9231 -4.06525 -14.068 9.46496 0 0 -6.71426 -5.05919 3.97666 -7.10543e-015 -36.0737 0 2.24584 47.0195 -10.3969 -7.10543e-015 -40.8088 0 7.43735 -24.1225 10.9564 7.10543e-015 -6.15222 14.1974 -1.98785e-016 0 3.18055e-015 -9.46496 -2.84217e-014 -1.42109e-014 -2.1961 -33.6285 1.49812 0 -36.0737 -7.10543e-015 17.935 46.8662 -5.43306 0 -40.8088 -1.42109e-014 -13.4538 -3.64185 -20.4084 7.10543e-015 -6.15222 14.1974 -1.98785e-016 -7.95139e-016 3.18055e-015 
0 0 0 0 0 -0 -12.8521 75.1189 -97.9756 -3.95905 -13.1063 -18.528 0 7.76127 -2.84217e-014 4.80898 15.92 -2.9019 0 24.7858 -1.42109e-014 -8.5186 12.7722 -1.27359 0 24.684 2.244 1.15542 18.0797 9.82095 -3.55271e-015 13.2509 -1.89299 -8.90351 -7.73805 8.39561 3.79413 23.4442 -0.177979 -8.6031 20.179 0.488557 9.21107 0 0 -46.9504 35.3905 1.69405 34.3528 1.42109e-014 -1.42109e-014 54.3987 -28.149 -35.9533 25.4606 1.42109e-014 0 26.1765 -5.58644 19.0381 -3.76739 23.4442 -0.177979 1.26895 17.392 -4.13627 -9.21107 0 0 35.659 27.0641 10.2086 -34.3528 -2.13163e-014 0 -22.4677 -40.8222 116.648 -25.4606 -1.42109e-014 7.10543e-015 -19.6818 -4.0837 -14.0976 9.46496 -1.42109e-014 0 -6.84155 -4.96753 4.05592 0 -36.0737 0 2.53173 47.0699 -10.4922 7.10543e-015 -40.8088 1.42109e-014 7.41708 -24.1949 10.757 0 -6.15222 14.1974 3.97569e-016 1.59028e-015 -6.36111e-015 -9.46496 -1.42109e-014 -1.42109e-014 -2.05909 -33.6385 1.49311 0 -36.0737 0 17.7158 46.2989 -5.3288 0 -40.8088 0 -13.1493 -3.49633 -20.2957 0 -6.15222 14.1974 -7.95139e-016 -1.98785e-015 3.18055e-015 
0 0 0 0 0 -0 -12.8525 75.0914 -97.8465 -3.94707 -13.1202 -18.4879 0 7.76127 0 4.84599 15.9065 -2.92558 -7.10543e-015 24.7858 0 -8.50496 12.7352 -1.29696 0 24.684 2.244 1.16206 18.1206 9.83816 0 13.2509 -1.89299 -8.94903 -7.76163 8.4029 3.79413 23.4442 -0.177979 -8.62966 20.2478 0.516703 9.21107 0 2.84217e-014 -46.9121 35.3789 1.60337 34.3528 0 0 54.4486 -28.1847 -35.9351 25.4606 -7.10543e-015 -7.10543e-015 26.3179 -5.58296 19.0738 -3.76739 23.4442 -0.177979 1.25654 17.404 -4.12731 -9.21107 -7.10543e-015 0 35.7059 27.1152 10.2018 -34.3528 -7.10543e-015 0 -22.54 -40.893 116.589 -25.4606 -1.42109e-014 0 -19.5121 -4.1165 -14.0626 9.46496 -1.42109e-014 0 -6.93386 -4.89218 4.05229 7.10543e-015 -36.0737 0 2.6218 47.1138 -10.396 -7.10543e-015 -40.8088 1.42109e-014 7.4427 -24.291 10.6781 0 -6.15222 14.1974 3.97569e-016 -2.38542e-015 6.36111e-015 -9.46496 0 0 -2.00126 -33.7207 1.56071 0 -36.0737 0 17.7224 45.7837 -5.29566 0 -40.8088 0 -12.8985 -3.23479 -20.2137 7.10543e-015 -6.15222 14.1974 -7.95139e-016 -7.95139e-016 -3.18055e-015 
0 0 0 0 0 -0 -12.853 75.0668 -97.7154 -3.94706 -13.158 -18.4578 0 7.76127 1.42109e-014 4.86653 15.9019 -2.94582 7.10543e-015 24.7858 0 -8.46066 12.7373 -1.31938 0 24.684 2.244 1.10462 18.121 9.85365 -3.55271e-015 13.2509 -1.89299 -8.92603 -7.78587 8.421 3.79413 23.4442 -0.177979 -8.67568 20.1935 0.525114 9.21107 -7.10543e-015 0 -46.9245 35.3605 1.61843 34.3528 0 0 54.4371 -28.1911 -35.9758 25.4606 7.10543e-015 0 26.3761 -5.56174 19.0705 -3.76739 23.4442 -0.177979 1.27321 17.4103 -4.1476 -9.21107 0 0 35.6745 27.099 10.2429 -34.3528 -1.42109e-014 0 -22.5419 -40.8763 116.601 -25.4606 0 7.10543e-015 -19.3937 -4.09158 -14.0919 9.46496 0 1.42109e-014 -6.99951 -4.80405 4.05675 0 -36.0737 -7.10543e-015 2.67757 47.1998 -10.4744 0 -40.8088 0 7.49402 -24.3403 10.6795 0 -6.15222 14.1974 5.96354e-016 -7.95139e-016 1.27222e-014 -9.46496 1.42109e-014 1.42109e-014 -1.87323 -33.7013 1.56011 -7.10543e-015 -36.0737 7.10543e-015 17.5122 45.2316 -5.05355 0 -40.8088 1.42109e-014 -12.7455 -3.1299 -20.2168 0 -6.15222 14.1974 -3.97569e-016 7.95139e-016 -3.18055e-015 
